<svg xmlns="http://www.w3.org/2000/svg" viewBox="0 0 146.3 37" xml:space="preserve">
  <circle cx="15" cy="22" r="15"/>
  <path d="M11 0h13.5C32 0 38 6 38 13.5S32 27 24.5 27H11V0z" opacity=".985" fill="#fff"/>
  <path d="M55.4 10.1h8.3c1.7 0 3.4.3 5 1 1.4.6 2.5 1.6 3.3 2.9.8 1.3 1.2 2.9 1.2 4.5s-.4 3.1-1.2 4.5c-.8 1.3-2 2.3-3.3 2.9-1.6.7-3.2 1.1-5 1h-8.3V10.1zm8 12.4c1.1.1 2.1-.3 2.9-1 .8-.8 1.2-1.8 1.1-2.9.1-1.1-.3-2.2-1.1-2.9-.8-.7-1.8-1.1-2.9-1H61v8h2.4zm26 .1v4.3h-14V10.1h13.7v4.3H81v2h7.1v4.1H81v2.2h8.4zm11.1 4.7c-1.7 0-3.3-.4-4.8-1.1-1.4-.7-2.5-1.8-3.3-3.1-.8-1.4-1.2-2.9-1.2-4.5s.4-3.2 1.2-4.5c.8-1.3 2-2.4 3.3-3.1 1.5-.8 3.1-1.1 4.8-1.1 1.5 0 3 .3 4.4.9 1.2.6 2.3 1.4 3.2 2.5l-3.6 3.2c-.8-1.2-2.2-1.9-3.7-2-1.1 0-2.1.4-2.9 1.1-.7.8-1.1 1.9-1.1 3.1-.1 1.1.3 2.2 1.1 3.1.7.8 1.8 1.2 2.9 1.1 1.5 0 2.8-.8 3.7-2l3.6 3.2c-.8 1.1-1.9 1.9-3.2 2.5-1.4.4-2.9.7-4.4.7zm17.9 0c-1.7 0-3.4-.4-4.9-1.1-1.4-.7-2.6-1.8-3.4-3.1-.8-1.4-1.3-2.9-1.2-4.5 0-1.6.4-3.2 1.2-4.5.8-1.3 2-2.4 3.4-3.1 1.5-.8 3.2-1.2 4.9-1.1 1.7 0 3.4.4 4.9 1.1 1.4.7 2.6 1.8 3.4 3.1.8 1.4 1.2 2.9 1.2 4.5s-.4 3.2-1.2 4.5c-.8 1.3-2 2.4-3.4 3.1-1.6.7-3.2 1.1-4.9 1.1zm0-4.6c.7 0 1.3-.2 1.9-.5.6-.4 1-.9 1.4-1.5.3-.7.5-1.5.5-2.2 0-.8-.2-1.5-.5-2.2-.3-.6-.8-1.1-1.4-1.5-.6-.3-1.2-.5-1.9-.5s-1.3.2-1.9.5c-.6.4-1 .9-1.4 1.5-.3.7-.5 1.5-.5 2.2 0 .8.2 1.5.5 2.2.3.6.8 1.1 1.4 1.5.5.3 1.2.5 1.9.5zm19 0h-1.5v4.2h-5.7V10.1h8.1c1.4 0 2.8.2 4.1.8 1.1.5 2 1.2 2.7 2.2.6 1 1 2.2.9 3.4 0 1.1-.3 2.2-.8 3.1-.6.9-1.4 1.7-2.4 2.1l3.5 5.2h-6l-2.9-4.2zm2.8-6.3c0-.5-.2-1.1-.6-1.5-.5-.4-1.1-.6-1.7-.5h-2.1v3.9h2.1c.6 0 1.2-.1 1.7-.5.4-.3.6-.8.6-1.4z" fill="#0e0d12"/>
</svg>
