<svg width="50" height="50" viewBox="0 0 50 50" fill="none" xmlns="http://www.w3.org/2000/svg">
    <path fill-rule="evenodd" clip-rule="evenodd" d="M11.4881 9.67241C12.6398 6.37013 15.7887 4 19.4928 4H30.8703C34.5744 4 37.7233 6.37013 38.875 9.67241H39.9481C43.2905 9.67241 46 12.3741 46 15.7069V34.4138C46 37.7465 43.2905 40.4483 39.9481 40.4483H38.8318C37.6463 43.6875 34.5291 46 30.8703 46H19.4928C15.834 46 12.7169 43.6875 11.5313 40.4483H10.0519C6.70952 40.4483 4 37.7465 4 34.4138V15.7069C4 12.3741 6.70952 9.67241 10.0519 9.67241H11.4881ZM19.4928 7.62069H30.8703C33.5442 7.62069 35.7118 9.78207 35.7118 12.4483V37.5517C35.7118 40.2179 33.5442 42.3793 30.8703 42.3793H19.4928C16.8189 42.3793 14.6513 40.2179 14.6513 37.5517V12.4483C14.6513 9.78207 16.8189 7.62069 19.4928 7.62069ZM11.0202 13.2931H10.0519C8.71493 13.2931 7.63112 14.3738 7.63112 15.7069V34.4138C7.63112 35.7469 8.71493 36.8276 10.0519 36.8276H11.0202V13.2931ZM39.3429 36.8276H39.9481C41.2851 36.8276 42.3689 35.7469 42.3689 34.4138V15.7069C42.3689 14.3738 41.2851 13.2931 39.9481 13.2931H39.3429V36.8276Z" fill="white" />
</svg>