<svg width="621" height="646" viewBox="0 0 621 646" fill="none" xmlns="http://www.w3.org/2000/svg"
    preserveAspectRatio="none">
    <rect width="621" height="646" fill="#EFEFEF" />
    <path
        d="M185 248C185 234.739 190.268 222.021 199.645 212.645C209.021 203.268 221.739 198 235 198H385C398.261 198 410.979 203.268 420.355 212.645C429.732 222.021 435 234.739 435 248V398C435 411.261 429.732 423.979 420.355 433.355C410.979 442.732 398.261 448 385 448H235C221.739 448 209.021 442.732 199.645 433.355C190.268 423.979 185 411.261 185 398V248Z"
        stroke="#111111" stroke-width="25" stroke-linecap="round" stroke-linejoin="round" />
    <path
        d="M266.25 310.5C283.509 310.5 297.5 296.509 297.5 279.25C297.5 261.991 283.509 248 266.25 248C248.991 248 235 261.991 235 279.25C235 296.509 248.991 310.5 266.25 310.5Z"
        stroke="#111111" stroke-width="25" stroke-linecap="round" stroke-linejoin="round" />
    <path
        d="M341.575 330.763L235 448H386.662C399.482 448 411.777 442.907 420.842 433.842C429.907 424.777 435 412.482 435 399.663V398C435 392.175 432.813 389.938 428.875 385.625L378.5 330.688C376.152 328.126 373.296 326.083 370.115 324.687C366.933 323.291 363.495 322.574 360.021 322.581C356.547 322.588 353.112 323.32 349.936 324.728C346.76 326.137 343.912 328.192 341.575 330.763Z"
        stroke="#111111" stroke-width="25" stroke-linecap="round" stroke-linejoin="round" />
</svg>