<svg xmlns="http://www.w3.org/2000/svg" viewBox="0 0 183.6 67.8" style="enable-background:new 0 0 183.6 67.8" xml:space="preserve"><path d="M100.9 26.2c.2.4.3.9.3 1.4 0 .5-.1 1-.3 1.4-.2.4-.5.8-.8 1.1-.3.3-.7.6-1.2.7-.4.2-.9.3-1.4.3-.5 0-.9-.1-1.4-.3-.4-.2-.8-.4-1.1-.7-.3-.3-.6-.7-.8-1.1-.2-.4-.3-.9-.3-1.4 0-.5.1-1 .3-1.4.2-.4.5-.8.8-1.1.3-.3.7-.6 1.1-.7.4-.2.9-.3 1.4-.3.5 0 .9.1 1.4.3.4.2.8.4 1.2.7.3.3.6.7.8 1.1zm9.9 19.9c-.2-.1-.4-.1-.6-.1h-1.9v2h1.8c.3 0 .6-.1.9-.2.2-.2.4-.5.3-.8-.1-.4-.2-.7-.5-.9zm-11.2-.2c-.6 0-1.1.2-1.5.6-.4.5-.6 1.2-.6 1.8 0 .6.2 1.1.5 1.6.4.5 1 .7 1.6.7.6 0 1.2-.2 1.5-.7.3-.5.5-1.1.5-1.7 0-.6-.2-1.2-.5-1.6-.4-.5-.9-.8-1.5-.7zm-29.2 2.8h1.8l-.9-2.5-.9 2.5zM73 23.8h-.6V27h.6c.5 0 1.1-.1 1.5-.4.4-.3.5-.7.5-1.2s-.2-.9-.5-1.2c-.5-.3-1-.4-1.5-.4zM183.6 0v67.8H0V0h183.6zM37.4 30.1c0-.9-.2-1.7-.8-2.4-.6-.7-1.5-1.2-2.4-1.5-.3-.1-.5-.2-.8-.3-.3-.1-.5-.2-.7-.3-.2-.1-.4-.2-.5-.4-.1-.2-.2-.4-.2-.6 0-.3.1-.6.4-.8.3-.2.7-.3 1.1-.3.4 0 .7.1 1.1.2.4.2.8.4 1.1.7l1.3-2.6c-.6-.3-1.3-.6-2-.8-.6-.2-1.3-.3-2-.3-.6 0-1.3.1-1.8.3-.5.2-1 .5-1.4.9-.4.4-.7.8-.9 1.3-.2.5-.3 1.1-.3 1.7 0 .5.1 1.1.3 1.6.2.4.5.7.8 1 .3.3.7.5 1.1.7.4.2.8.3 1.3.5.4.1.7.2.9.3l.6.3c.1.1.3.2.3.4.1.2.1.3.1.5 0 .3-.2.6-.4.8-.3.3-.8.4-1.2.4-.5 0-1-.1-1.4-.3-.5-.3-1-.6-1.5-1L27.9 33c1.3.9 2.9 1.4 4.5 1.4.7 0 1.4-.1 2.1-.3.6-.2 1.1-.5 1.6-.9.4-.4.8-.8 1-1.4.2-.5.3-1.1.3-1.7zm19.9-8.9h-8.8V24h2.7v10h3.3V24h2.7v-2.8zm7.6 24.1h-4V51h.8v-2.6h2.8v-.7h-2.8V46h3.2v-.7zm9 5.8-2.1-5.7h-.9l-2.2 5.7h.8l.6-1.7h2.3l.6 1.7h.9zm1.6-17h4.1l-4-5.3c.8-.2 1.6-.6 2.1-1.2.5-.7.7-1.5.7-2.4 0-.5-.1-1-.3-1.5-.2-.5-.4-.9-.8-1.3s-.8-.7-1.3-.9c-.6-.2-1.2-.3-1.9-.3H69V34h3.3v-4.9l3.2 5zm7.9 14.8h-.8c-.1.3-.2.6-.4.9-.3.4-.8.7-1.3.7s-1.1-.2-1.4-.6c-.3-.5-.5-1.1-.5-1.6-.1-.7.1-1.3.5-1.8.3-.4.8-.6 1.4-.6.4 0 .8.1 1.1.3.3.2.4.5.5.9h.8c-.1-.5-.3-1-.7-1.3-.5-.4-1.1-.6-1.7-.6-.8 0-1.5.3-2 .9-.5.6-.7 1.3-.7 2.1-.1.9.3 1.8.9 2.5.5.4 1.1.6 1.7.6.7 0 1.4-.2 1.8-.7.5-.6.8-1.1.8-1.7zm9.2-3.6h-4.7v.7h1.9v5.1h.8V46h1.9v-.7zm9.8 2.8c0-.7-.2-1.4-.6-1.9-.5-.7-1.4-1-2.2-1-.9-.1-1.7.4-2.2 1.1-.4.6-.6 1.3-.6 2 0 .8.2 1.5.7 2.1.5.6 1.3.9 2.1.9s1.7-.3 2.2-1c.4-.7.7-1.4.6-2.2zm2.2-20.5c0-.9-.2-1.8-.5-2.7-.3-.8-.8-1.5-1.5-2.2-.6-.6-1.4-1.1-2.3-1.4-.9-.4-1.9-.5-2.9-.5s-2 .2-2.9.5c-.8.3-1.6.8-2.2 1.4-.6.6-1.1 1.3-1.5 2.2-.4.8-.5 1.7-.5 2.7 0 .9.2 1.8.5 2.7.3.8.8 1.5 1.5 2.1.6.6 1.4 1.1 2.2 1.4.9.4 1.9.5 2.9.5s1.9-.2 2.9-.5c.8-.3 1.6-.8 2.3-1.4.6-.6 1.1-1.3 1.5-2.1.4-.8.6-1.7.5-2.7zm7.6 23.3c-.1-.1-.2-.2-.2-.4s-.1-.3-.1-.5v-.8c0-.3-.1-.5-.2-.7-.1-.2-.3-.3-.5-.4.2-.1.4-.3.6-.5.2-.3.2-.5.2-.8 0-.6-.3-1.1-.8-1.4-.3-.1-.7-.2-1.1-.2h-2.7v5.7h.8v-2.5h1.8c.2 0 .5 0 .7.1.3.1.4.4.4.8v1.5c0 .1 0 .1.1.2h1v-.1zm9.5-5.6h-.9l-1.6 2.8-1.6-2.8h-.9l2.2 3.4V51h.8v-2.3l2-3.4zm8.1-24.1h-3.3V29l-6.2-7.8H117V34h3.3v-7.8l6.2 7.8h3.3V21.2zm25.9 5.7h-6.6v2.6h2.7c0 .3-.2.7-.3 1-.2.3-.4.5-.6.6-.3.2-.5.3-.8.4-.3.1-.6.1-1 .1-.5 0-1-.1-1.5-.3-.4-.2-.8-.4-1.1-.8-.3-.4-.5-.8-.6-1.2-.1-.5-.2-1-.2-1.5 0-.6.1-1.1.2-1.6s.4-.9.7-1.2c.3-.3.6-.6 1-.8.4-.2.9-.3 1.4-.3.6 0 1.1.2 1.6.5.5.4.9.9 1.1 1.5l3.2-1.3c-.5-1.1-1.3-2.1-2.4-2.7-1.1-.6-2.3-.9-3.5-.9-1 0-1.9.2-2.8.5-.8.3-1.5.8-2.1 1.4-.6.6-1.1 1.3-1.4 2.1-.3.9-.5 1.8-.5 2.7 0 .9.2 1.9.5 2.8.3.8.8 1.5 1.4 2.1.6.6 1.3 1.1 2.1 1.4.9.3 1.8.5 2.7.5.7 0 1.4-.1 2.1-.3.6-.2 1.2-.4 1.8-.8.5-.3 1-.8 1.4-1.3.4-.5.7-1.1 1-1.8.2-.5.3-1 .3-1.5.2-.7.2-1.3.2-1.9z"/></svg>