<svg xmlns="http://www.w3.org/2000/svg" viewBox="0 0 180.8 39.5" style="enable-background:new 0 0 180.8 39.5" xml:space="preserve"><path d="M93.6 31.4v4.9c.1.6-.2 1.2-.6 1.6-.4.4-1 .5-1.6.5-.6 0-1.1-.2-1.6-.5-.4-.4-.6-1-.6-1.6v-4.9c0-.1 0-.2.1-.2.1-.1.2-.1.3-.1.1 0 .2 0 .3.1.1 0 .1.1.1.2v4.9c0 .9.4 1.4 1.3 1.4.4 0 .7-.1 1-.4.3-.3.4-.7.3-1.1v-4.9c0-.2.1-.3.4-.3.1 0 .2 0 .3.1.3.2.3.2.3.3zm-10.2.3c.4.4.6 1 .6 1.6v3c0 .6-.1 1.1-.5 1.6-.4.4-.8.6-1.3.6v.7c0 .1 0 .2-.1.2-.1.1-.1.1-.2.1s-.2 0-.2-.1c-.1-.1-.1-.1-.1-.2v-.7c-.5 0-1-.2-1.3-.6-.4-.4-.5-1-.5-1.6v-3c-.1-.6.2-1.2.6-1.6.4-.4 1-.5 1.6-.5.4-.1 1 .1 1.4.5zm-.2 1.6c0-.4-.1-.8-.3-1.1-.3-.2-.6-.4-1-.4-.9 0-1.3.5-1.3 1.4v3c0 .8.3 1.3 1 1.4V37c0-.1 0-.2.1-.2s.1-.1.2-.1.2 0 .2.1c.1.1.1.1.1.2v.7c.7-.1 1-.5 1-1.4v-3zm16.5-2.1c-.1-.1-.2-.1-.3-.1-.1 0-.2 0-.3.1-.1 0-.1.1-.1.2v6.7c0 .1 0 .2.1.2.1.1.2.1.3.1.1 0 .2 0 .3-.1.1 0 .1-.1.1-.2v-6.7c0-.1 0-.2-.1-.2zM50 31.1c-.3 0-.5.2-.7.5l-1.6 3-1.6-3c-.2-.4-.4-.5-.7-.5h-.1c-.2 0-.3.2-.3.4v6.6c0 .1 0 .2.1.2.1.1.2.1.3.1.1 0 .2 0 .3-.1.1 0 .1-.1.1-.2v-5.3l1.5 2.9c0 .1.2.2.3.2.1 0 .3-.1.3-.2l1.5-2.8v5.2c0 .1 0 .2.1.2.1.1.2.1.3.1.1 0 .2 0 .3-.1.1 0 .1-.1.1-.2V31.4c.2-.2 0-.3-.2-.3zm-19.9.1c-.1-.1-.2-.1-.3-.1-.1 0-.2 0-.3.1-.1 0-.1.1-.1.2v2.9h-2.7v-2.9c0-.1 0-.2-.1-.2-.1-.1-.2-.1-.3-.1-.1 0-.2 0-.3.1-.1 0-.1.1-.1.2v6.7c0 .1 0 .2.1.2.1.1.2.1.3.1.1 0 .2 0 .3-.1.1 0 .1-.1.1-.2V35h2.7v3.1c0 .1 0 .2.1.2.1.1.2.1.3.1.1 0 .2 0 .3-.1.1 0 .1-.1.1-.2v-6.7c0-.1 0-.1-.1-.2zm9.1.5c.4.4.6 1 .6 1.6v3c.1.6-.2 1.2-.6 1.6-.4.4-1 .5-1.6.5-.6 0-1.1-.2-1.6-.5-.4-.4-.6-1-.6-1.6v-3c-.1-.6.2-1.2.6-1.6.4-.4 1-.5 1.6-.5.6-.1 1.2.1 1.6.5zm-.2 1.6c0-.4-.1-.8-.3-1.1-.3-.2-.6-.4-1-.4-.9 0-1.3.5-1.3 1.4v3c0 .9.4 1.4 1.3 1.4.4 0 .7-.1 1-.4.2-.3.4-.7.3-1.1v-2.8zm35.7 4.3h-3.1v-2.5h1.5c.1 0 .2 0 .2-.1s.1-.2.1-.2c0-.1 0-.2-.1-.3 0-.1-.1-.1-.2-.1h-1.5v-2.5h3.1c.1 0 .2 0 .2-.1.1-.1.1-.2.1-.3 0-.1 0-.2-.1-.3 0-.1-.1-.1-.2-.1h-3.5c-.1 0-.2 0-.3.1-.1 0-.1.1-.1.2v6.7c0 .1 0 .2.1.2.1.1.2.1.3.1h3.5c.1 0 .2 0 .2-.1.1-.1.1-.2.1-.3 0-.1 0-.2-.1-.3 0 0-.1-.1-.2-.1zm-15 0h-3.1v-2.5h1.5c.1 0 .2 0 .2-.1s.1-.1.1-.2 0-.2-.1-.3c0-.1-.1-.1-.2-.1h-1.5v-2.5h3.1c.1 0 .2 0 .2-.1.1-.1.1-.2.1-.3 0-.1 0-.2-.1-.3 0-.1-.1-.1-.2-.1h-3.5c-.1 0-.2 0-.3.1-.1 0-.1.1-.1.2v6.7c0 .1 0 .2.1.2.1.1.2.1.3.1h3.5c.1 0 .2 0 .2-.1.1-.1.1-.2.1-.3 0-.1 0-.2-.1-.3 0 0-.1-.1-.2-.1zm83.7-6.1zm4.4-.4h-4c-.1 0-.2 0-.2.1-.1.1-.1.2-.1.3 0 .1 0 .2.1.3 0 .1.1.1.2.1h1.6v6.2c0 .1 0 .2.1.2.1.1.2.1.3.1.1 0 .2 0 .3-.1.1 0 .1-.1.1-.2v-6.2h1.6c.1 0 .2 0 .2-.1.1-.1.1-.2.1-.3 0-.1 0-.2-.1-.3-.1 0-.2-.1-.2-.1zm-9.3.1c-.1-.1-.2-.1-.3-.1-.1 0-.2 0-.3.1-.1 0-.1.1-.1.2v5.1l-2.5-4.8c-.1-.2-.2-.3-.3-.4-.1-.1-.2-.1-.4-.1-.3 0-.4.1-.4.3v6.7c0 .1 0 .2.1.2.1.1.2.1.3.1.1 0 .2 0 .3-.1.1 0 .1-.1.1-.2V33l2.6 5c.1.2.3.4.5.4.1 0 .2 0 .3-.1.1 0 .1-.1.1-.2v-6.7c.1-.1.1-.1 0-.2zm-9.4.7c.1 0 .2 0 .2-.1.1-.1.1-.2.1-.3 0-.1 0-.2-.1-.3 0-.1-.1-.1-.2-.1h-3.5c-.1 0-.2 0-.3.1-.1 0-.1.1-.1.2v6.7c0 .1 0 .2.1.2.1.1.2.1.3.1h3.5c.1 0 .2 0 .2-.1.1-.1.1-.2.1-.3 0-.1 0-.2-.1-.3 0-.1-.1-.1-.2-.1H126v-2.5h1.5c.1 0 .2 0 .2-.1s.1-.1.1-.2 0-.2-.1-.3c0-.1-.1-.1-.2-.1H126v-2.5h3.1zm-20.1-.2c.4.4.6 1 .6 1.6v.1c.1.6-.2 1.2-.6 1.6-.4.4-1 .5-1.6.5H106v2.6c0 .1 0 .2-.1.2-.1.1-.2.1-.3.1-.1 0-.2 0-.3-.1-.1 0-.1-.1-.1-.2v-6.7c0-.1 0-.2.1-.2.1-.1.2-.1.2-.1h1.9c.6 0 1.1.2 1.6.6zm-.3 1.6c0-.4-.1-.8-.3-1.1-.3-.2-.6-.4-1-.4H106v2.9h1.3c.4 0 .7-.1 1-.4.2-.3.4-.7.3-1.1v.1zm10.7-2.2c-.3 0-.5.2-.7.5l-1.6 3-1.6-3c-.2-.4-.4-.5-.7-.5h-.1c-.2 0-.3.2-.3.4v6.6c0 .1 0 .2.1.2.1.1.2.1.3.1.1 0 .2 0 .3-.1.1 0 .1-.1.1-.2v-5.3l1.5 2.9c0 .1.2.2.3.2.1 0 .3-.1.3-.2l1.5-2.8v5.2c0 .1 0 .2.1.2.1.1.2.1.3.1.1 0 .2 0 .3-.1.1 0 .1-.1.1-.2V31.4c.2-.2 0-.3-.2-.3zm61.1-14.7c-.2-.3-.5-.5-.9-.5h-7.1v-4.5h4c.4 0 .7-.2.9-.5.2-.3.3-.7.3-1.1 0-.4-.1-.8-.3-1.1-.2-.3-.5-.5-.9-.5h-4V3.8h7.1c.4 0 .7-.2.9-.5.2-.4.3-.8.3-1.3 0-.4-.1-.9-.3-1.2-.2-.3-.5-.5-.9-.5h-9.4c-.4 0-.9.1-1.3.3-.3.2-.5.6-.5.9v16.8c0 .4.2.8.5.9.4.2.8.3 1.3.3h9.4c.4 0 .7-.2.9-.5.2-.4.3-.8.3-1.2 0-.5-.1-1-.3-1.4zm-146.8-.5h-6V1.4c0-.4-.2-.8-.6-.9-.5-.2-1-.3-1.5-.3s-1 .1-1.5.3c-.4.2-.6.5-.6.9v16.8c0 .4.2.7.5.9.4.2.8.3 1.3.3h8.4c.4 0 .7-.2.9-.5.2-.4.3-.8.3-1.3 0-.4-.1-.9-.3-1.3-.2-.2-.5-.4-.9-.4zM11.2 3.8c.4 0 .7-.2.9-.5.2-.4.3-.8.3-1.3 0-.4-.1-.9-.3-1.2-.2-.3-.5-.5-.9-.5H1.8C1.4.3.9.4.5.6.2.7 0 1 0 1.4v16.8c0 .4.2.8.5.9.4.2.8.3 1.3.3h9.4c.4 0 .7-.2.9-.5.2-.4.3-.8.3-1.2 0-.5-.1-.9-.3-1.3-.2-.3-.5-.5-.9-.5H4.1v-4.5h4c.4 0 .7-.2.9-.5.2-.3.3-.7.3-1.1 0-.4-.1-.8-.3-1.1-.2-.3-.5-.5-.9-.5h-4V3.8h7.1zm35.2 15.4c.4.2.8.3 1.3.3h9.4c.4 0 .7-.2.9-.5.2-.4.3-.8.3-1.2 0-.5-.1-.9-.3-1.3-.2-.3-.5-.5-.9-.5H50v-4.5h4c.4 0 .7-.2.9-.5.2-.3.3-.7.3-1.1 0-.4-.1-.8-.3-1.1-.2-.3-.5-.5-.9-.5h-4V3.8h7.1c.4 0 .7-.2.9-.5.2-.4.3-.8.3-1.3 0-.4-.1-.9-.3-1.2-.2-.3-.5-.5-.9-.5h-9.4c-.4 0-.9.1-1.3.3-.4.1-.6.4-.6.8v16.8c0 .4.2.8.6 1zM154.9 7.4c.6.1 1.1-.1 1.6-.4.4-.4.5-1 .5-1.6.1-1.5-.6-3-1.9-3.9-1.4-1-3.1-1.5-4.8-1.4-1.7-.1-3.3.5-4.6 1.5-1.3 1.2-1.9 3-1.8 4.7v7c-.2 1.8.5 3.5 1.8 4.7 1.3 1 2.9 1.6 4.6 1.5 1.7.1 3.4-.5 4.8-1.5 1.2-1 1.9-2.5 1.9-4.1.1-.6-.1-1.1-.5-1.5-.5-.3-1-.5-1.6-.4-1.3 0-2 .4-2 1.3 0 .3-.1.6-.1.9-.1.3-.2.5-.3.8-.1.3-.4.6-.7.7-.4.2-.8.3-1.2.2-1.6 0-2.4-.9-2.4-2.6v-7c0-1.8.8-2.6 2.4-2.6h.5c1.2.1 2 1.2 1.9 2.4-.1.9.6 1.3 1.9 1.3zm-72.9 6v-2.8c0-.3-.1-.7-.3-.9-.2-.3-.6-.4-.9-.4h-4.5c-.4 0-.7.2-.9.5-.2.3-.3.7-.3 1.1 0 .4.1.8.3 1.1.2.3.5.5.9.5h1.6v.9c0 1.8-.8 2.6-2.4 2.6-1.6 0-2.4-.9-2.4-2.6v-7c0-1.8.8-2.6 2.4-2.6.4 0 .7 0 1.1.2.3.1.5.2.7.4.2.2.3.4.4.6.1.2.1.4.2.6v.6c0 .8.7 1.2 2.1 1.2.6.1 1.1-.1 1.6-.4.4-.4.5-1 .5-1.5.1-1.5-.6-3-1.9-3.9C78.8.6 77.1.1 75.4.2c-1.7-.1-3.3.5-4.6 1.5-1.3 1.2-1.9 3-1.8 4.7v7c-.2 1.8.5 3.5 1.8 4.7 1.3 1.1 3 1.6 4.7 1.5 1.7.1 3.4-.5 4.7-1.5 1.3-1.2 2-2.9 1.8-4.7zM131.5.5c-.5-.2-1-.3-1.5-.3s-1 .1-1.5.3c-.4.2-.6.5-.6.9v9l-4.3-8.2c-.3-.7-.7-1.3-1.3-1.7-.5-.3-1.2-.4-1.8-.3-.5 0-1 .1-1.5.3-.4.2-.6.5-.6.9v16.8c0 .4.2.8.6.9.5.2 1 .3 1.5.3s1-.1 1.5-.3c.4-.2.6-.5.6-.9v-9l5 9.2c.5.8 1.4 1.2 2.3 1.1.5 0 1-.1 1.5-.3.4-.2.6-.5.6-.9V1.4c.1-.4-.2-.8-.5-.9zM106.9 19c-.5.3-1.2.5-1.8.5-.8 0-1.2-.3-1.4-.8l-.9-3.3h-5.6l-.9 3.3c-.1.5-.6.8-1.4.8-.6 0-1.2-.2-1.8-.5-.5-.2-.8-.7-.9-1.2 0-.1 0-.2.1-.3l4.9-16.2c.2-.5.5-.8 1-1 .6-.2 1.2-.3 1.8-.3.6 0 1.2.1 1.7.4.5.2.8.6 1 1l5 16.2c0 .1 0 .2.1.3-.1.5-.5.9-.9 1.1zm-5-6.7L100 5.2l-1.9 7.1h3.8z"/></svg>