<svg xmlns="http://www.w3.org/2000/svg" viewBox="0 0 121.4 77.8" style="enable-background:new 0 0 121.4 77.8" xml:space="preserve"><path d="M115.9 54.5c-5.7-7.9-11.5-15.7-17.3-23.5-.4-.6-.9-1.2-1.7-2.2v16.8c2.1 0 4.2.1 6.4 0 1.5-.1 2 .5 2 2s-.7 1.8-2 1.8c-3.4-.1-6.8 0-10.4 0v-24c0-.8.4-2.3.8-2.3 1.4-.1 3-.8 4.3.9 3.3 4.7 6.8 9.2 10.2 13.8l8 10.8.7-.2V33.8c0-3 .1-6 0-9 0-1.8 1-1.9 2.4-1.9 1.6 0 1.5 1 1.4 2.1-.1 9.4-.1 18.8-.2 28.2 0 .8-.4 2.3-.8 2.4-1.3.2-2.7.4-3.8-1.1zm-66.5 1.1c6.3-.1 12.7-.1 19 0 1.4 0 2-.4 2-1.8 0-1.5-.5-2-2-2-4.5.1-9 0-13.5 0h-3.4v-6.3h12.8c1.4 0 2.3-.1 2.3-1.9 0-1.8-.9-1.9-2.3-1.9-2 .1-4 0-5.9 0h-6.9V36c4.5 0 8.9-.1 13.2 0 1.6 0 1.9-.6 1.9-2.1 0-1.3-.5-1.8-1.8-1.8-4.4.1-8.8 0-13.3 0v-5.7h16c3.1 0 3.3-.2 2.6-3.8H49c-1.3 0-1.4.7-1.4 1.7v29.2c-.1 1.7.4 2.2 1.8 2.1zM70 22.8zM.3 53.7c.1-5 .1-10.1 0-15.1 0-1.5.5-2 2-2 3.7.1 7.5 0 11.2 0 3.2 0 5.5-2.1 5.5-5.1 0-3.1-2.1-5-5.4-5H3c-1.1-3.1-.7-3.8 2.2-3.8h8.6c3.4-.2 6.6 1.7 8.1 4.8 1.7 3.2 1.1 6.2-.9 9-.2.3-.5.7-.7 1-.1.1-.1.3.3.2 1.2 2.1 2.9 4.1 3.5 6.4 1.2 4.9-1.7 9.8-6.6 11-.8.2-1.6.3-2.5.3H1.9c-1.2.3-1.7-.3-1.6-1.7zm3.8-1.9c4.2 0 8 .1 11.9 0 2.5-.1 4.6-2.8 4.7-5.6.1-2.5-1.8-5.4-4.2-5.6-4.1-.3-8.3-.1-12.5-.1l.1 11.3zm-3-49.2c.6.1 1.2.1 1.8.1h115.6c.6.1 1.2.1 1.8-.1.5-.2.8-.7.9-1.2-.1-.5-.4-1-.9-1.3-.4-.2-.9-.1-1.4-.1H2.2C1.8 0 1.3-.1 1 0 .6.4.3.9.1 1.4c-.1.4.5 1 1 1.2zm0 69.7c.5.1 1.1.2 1.6.1h115.9c.6.1 1.2.1 1.8-.1.5-.3.8-.7.9-1.3-.1-.5-.4-1-.9-1.2-.7-.1-1.4-.2-2-.1H2.9c-.6-.1-1.2-.1-1.8.1-.5.3-.9.8-1 1.4 0 .3.6.9 1 1.1zM2.9 5.6c-.6-.1-1.2-.1-1.8 0-.5.2-.9.7-1 1.2.1.5.5 1 1 1.2.5.1 1.1.2 1.6.1h116.1c.5.1 1.1.1 1.6-.1s.8-.7 1-1.2c-.1-.5-.4-1-.9-1.2-.7-.1-1.4-.2-2-.1H2.9zm118.2 69.6H2.9c-.5-.1-1-.1-1.4 0-.5.3-1 .7-1.5 1.2.5.5 1 1.3 1.5 1.3 2.2.2 4.5.1 6.8.1h110.8c1.7 0 2.9-.2 2-2.6zM96 51.8c-3.4 0-3.4.1-2.8 3.8h14.6c1.6 0 1.4-1.1 1.5-2.1.1-1.2-.4-1.7-1.6-1.7-3.9.1-7.8 0-11.7 0z"/></svg>