<svg xmlns="http://www.w3.org/2000/svg" viewBox="0 0 150.9 37.8" style="enable-background:new 0 0 150.9 37.8" xml:space="preserve"><path d="M23.9 16c0 3.1-2.5 5.7-5.7 5.7-3.1 0-5.7-2.5-5.7-5.7 0-3.1 2.5-5.7 5.7-5.7 3.1 0 5.7 2.6 5.7 5.7zM.5 37.2h2.9V3.4h43.1v33.9h2.9V.5H.5v36.7zm31.2-12.5c-3.1 0-5.7 2.5-5.7 5.7 0 3.1 2.5 5.7 5.7 5.7 3.1 0 5.7-2.5 5.7-5.7-.1-3.2-2.6-5.7-5.7-5.7zm98.6-6.6-2.5-12.9h-5.5v26.9h5.3V18.6l2.7 13.5h5.3V5.2h-5.2v12.9zm-15.4 14h5.2V5.2h-5.2v26.9zm36-7.3c.1 2-.5 4-1.7 5.6-1.3 1.4-3.1 2.1-4.9 2-1.9.1-3.7-.6-4.9-2-1.2-1.6-1.8-3.6-1.7-5.6V12c-.1-1.9.5-3.8 1.7-5.2 2.9-2.4 7-2.4 9.9 0 1.2 1.5 1.8 3.3 1.7 5.2v12.8zm-5.4-12.9c0-.5-.1-1-.2-1.4-.2-.4-.6-.6-1-.5-.9 0-1.3.7-1.3 2v13.1c0 .6.1 1.2.3 1.8.2.4.6.6 1 .6s.8-.2 1-.6c.2-.6.3-1.2.2-1.8V11.9zm-43.2 9.7L100 5.2h-8.2v26.9h4.8V12.7l3.3 19.4h4.8l3.1-19.4v19.4h4.9V5.2h-8.3l-2.1 16.4zM74.4 11.5l.1 12.6c0 2.7-.4 4.6-1.4 6s-2.5 2-4.7 2h-7.2V5.2h7.4c1.6-.1 3.2.5 4.3 1.6 1 1.3 1.6 3 1.5 4.7zM69 12c0-.5 0-.9-.1-1.4-.1-.3-.3-.5-.5-.6-.4-.1-.8-.2-1.2-.2h-.6v17.4h.9c.7.1 1.4-.4 1.5-1.1V12zm20.6 0v12.8c.1 2-.5 4-1.7 5.6-1.3 1.4-3.1 2.1-4.9 2-1.9.1-3.7-.6-4.9-2-1.2-1.6-1.8-3.6-1.7-5.6V12c-.1-1.9.5-3.8 1.7-5.2 1.3-1.3 3.1-2 4.9-1.8 1.8-.1 3.6.5 4.9 1.8 1.3 1.4 1.9 3.3 1.7 5.2zm-5.4-.1c0-.5-.1-1-.2-1.4-.2-.4-.6-.6-1-.5-.9 0-1.3.7-1.3 2v13.1c0 .6.1 1.2.3 1.8.2.4.6.6 1 .6s.8-.2 1-.6c.2-.6.3-1.2.2-1.8V11.9z"/></svg>