<svg xmlns="http://www.w3.org/2000/svg" viewBox="0 0 122.4 76.8" style="enable-background:new 0 0 122.4 76.8" xml:space="preserve"><path d="M120.9 72.9c-9.8-28.7-29.2-45.7-59.7-45.7-30.5 0-49.9 16.9-59.6 45.3-4.5-15.7.2-41.6 20.3-58.4C42.2-2.6 70.9-4.7 93.3 9c21.8 13.3 33.3 39.7 27.6 63.9zM1.6 72.5zm39.5-15.4v19.4h-.7V63.9l-.8-.3c-2.1 1.9-4.3 3.7-6.2 5.8-1.4 1.5-2.5 1.4-3.9-.1-1.9-2-4-3.7-6.6-6.1v13.4h-.8V57.2c2.3 2.2 4.4 4.2 6.6 6.1 2.8 2.5 2.1 3 5.2.1 2.3-2 4.5-3.9 7.2-6.3zm-.8 3.1-.7-.4c-2.1 1.9-4.3 3.8-6.3 5.8-1.2 1.2-2.2 1.4-3.5 0-2-2-4.2-3.9-6.2-5.8l-.7.5c.2.8.6 1.5 1 2.1 2.1 2.1 4.3 4.1 6.6 6.1.7.4 1.5.3 2.2-.1 2.3-2 4.6-4.1 6.8-6.2.3-.6.6-1.2.8-2zm32.8 16.6zm9.8-9.8c-.1 5.4-4.5 9.7-9.9 9.8-5.5 0-9.9-4.4-9.9-9.9S67.5 57 73 57c5.5.1 9.9 4.5 9.9 10zm-10.7-8.6c-4.3-.1-7.7 3.5-8 8.2-.2 3.9 3.2 9.2 8 8.8v-17zm9.7 8.2c-.1-4.6-3.8-8.4-8.2-8.2v16.9c4.6 0 8.2-3.8 8.2-8.3v-.4zm-19.6.2v.2c-.1 5.4-4.4 9.7-9.8 9.8-5.5.1-9.9-4.3-10-9.8-.1-5.5 4.3-9.9 9.8-10s9.9 4.3 10 9.8zm-10.7-8.4c-4.5-.1-8 3.7-8 8.5 0 4.7 3.5 8.5 8 8.5v-17zm9.6 7.9c-.1-1.6-.7-3.2-1.6-4.5-1.4-2.3-3.9-3.6-6.6-3.5v17.3c4.8-.3 8.5-4.5 8.2-9.3zm38.8-9h-1.1v13.9L84.8 57.6v18.9h1.5V60.9L100 74V57.3zm-5.6 18.3v1.1h5.7v-1.1h-5.7z"/></svg>