<svg xmlns="http://www.w3.org/2000/svg" viewBox="0 0 140.9 34" style="enable-background:new 0 0 140.9 34" xml:space="preserve"><path d="M14.8 26.4c0 4.1-3.3 7.4-7.4 7.4-4.1 0-7.4-3.3-7.4-7.4S3.3 19 7.4 19s7.4 3.3 7.4 7.4zM25 19c-4.1 0-7.4 3.3-7.4 7.4 0 4.1 3.3 7.4 7.4 7.4 4.1 0 7.4-3.3 7.4-7.4S29.1 19 25 19zm0-3.8c4.1 0 7.4-3.3 7.4-7.4 0-4.1-3.3-7.4-7.4-7.4-4.1 0-7.4 3.3-7.4 7.4 0 4.1 3.3 7.4 7.4 7.4zM7.4.4C3.3.4 0 3.7 0 7.8s3.3 7.4 7.4 7.4c4.1 0 7.4-3.3 7.4-7.4 0-4.1-3.3-7.4-7.4-7.4zM38.1 34H41V0h-2.9v34zM62.9 3.9c1.7 1.5 2.5 3.8 2.5 7v11.8c0 3.2-.9 5.5-2.5 7-1.9 1.6-4.3 2.4-6.8 2.2h-7.3c-.5 0-1-.1-1.4-.4-.3-.2-.6-.6-.6-1V3.1c0-.4.2-.8.6-1 .4-.3.9-.4 1.4-.4h7.3c2.5-.1 4.9.7 6.8 2.2zm-1.9 7c0-3.6-1.6-5.3-4.9-5.3h-4.9v22.5h4.9c3.3 0 4.9-1.8 4.9-5.3V10.9zm25.4-7c1.7 1.5 2.5 3.8 2.5 7V23c0 3.2-.8 5.5-2.5 7-4 3-9.5 3-13.5 0-1.7-1.5-2.5-3.8-2.5-7V10.9c0-3.2.8-5.5 2.5-7 3.9-3 9.4-3 13.5 0zm-1.9 7c.1-1.5-.3-2.9-1.3-4-1-.9-2.3-1.4-3.6-1.3-3.3 0-4.9 1.8-4.9 5.3V23c0 3.6 1.6 5.3 4.9 5.3 1.3.1 2.7-.4 3.6-1.3.9-1.1 1.4-2.6 1.3-4V10.9zm30.4-9.2c-.7 0-1.4.1-1.9.5-.6.5-1.2 1.2-1.5 2l-5.9 11-5.8-11c-.3-.8-.9-1.4-1.5-2-.6-.4-1.3-.5-2-.5-.6 0-1.1.2-1.6.5-.4.4-.7 1-.6 1.7v26.7c0 .4.3.9.7 1.1 1 .5 2.1.5 3.1 0 .4-.2.6-.6.6-1.1V10.4l5.6 10.5c.2.6.8 1 1.5 1s1.3-.4 1.6-1l5.5-10.3v19.9c0 .4.3.9.7 1.1 1 .5 2.1.5 3.1 0 .4-.2.6-.6.6-1.1V3.9c.1-.6-.2-1.2-.6-1.7-.5-.3-1.1-.5-1.6-.5zm26 9.2V23c0 3.2-.9 5.5-2.5 7-4 3-9.5 3-13.5 0-1.7-1.5-2.5-3.8-2.5-7V10.9c0-3.2.8-5.5 2.5-7 4-3 9.5-3 13.5 0 1.6 1.5 2.5 3.8 2.5 7zm-4.4 0c.1-1.5-.3-2.9-1.3-4-1-.9-2.3-1.4-3.6-1.3-3.3 0-4.9 1.8-4.9 5.3V23c0 3.6 1.6 5.3 4.9 5.3 1.3.1 2.7-.4 3.6-1.3.9-1.1 1.4-2.6 1.3-4V10.9z" style="fill:#030504"/></svg>