<svg xmlns="http://www.w3.org/2000/svg" viewBox="0 0 128.9 91.4" style="enable-background:new 0 0 128.9 91.4" xml:space="preserve"><path d="M128.9 13.2v11.2L64.5 11.2 0 24.5V13.2L64.5 0l64.4 13.2zM27.5 34.4l2.9 30.1h-5.7l-.4-4.9h-3.6l-.3 4.9h-5.8l2.9-30.1h10zm-3.7 20.4-1.3-15.3h-.3l-1.1 15.3h2.7zm33.7-8.4h6v-5.2c.1-2-.6-3.9-2-5.2-1.5-1.3-3.4-1.9-5.4-1.8-2.5 0-4.4.8-5.6 2.3-1.2 1.5-1.8 3.8-1.8 6.8V57c-.1 2.1.6 4.1 2 5.7 1.4 1.4 3.3 2.2 5.3 2.1 5.1 0 7.6-2.5 7.6-7.6v-5.7h-6.1V57c0 1.5-.5 2.3-1.4 2.3-.4 0-.8-.2-1-.5-.3-.5-.4-1.1-.3-1.7V41.9c0-.6.1-1.1.3-1.6.2-.4.7-.6 1.1-.6.4 0 .8.1 1.1.5.3.6.4 1.2.3 1.8v4.4zM44 48.8c.8.1 1.6.6 2 1.4.5.9.7 1.9.6 2.9l-.1 11.4h-5.9V52.7c0-.8-.2-1.4-.5-1.6-.5-.3-1.2-.4-1.8-.3v13.7h-6.1V34.4h9.2c1.2-.1 2.4.3 3.4 1 .8.7 1.4 1.7 1.6 2.8.3 1.5.5 3.1.4 4.6.1 1.4-.2 2.7-.7 4-.3 1-1.1 1.7-2.1 2zm-2.9-6c0-.6 0-1.2-.1-1.8 0-.3-.2-.6-.4-.8-.3-.2-.6-.2-.8-.2h-1.4v5.6h1.4c.8 0 1.3-1 1.3-2.8zm24.4-8.4v30.1h6V50.8h2.8v13.6h6v-30h-6v10.7h-2.8V34.4h-6zM95 40.2v-5.8H83v30.1h12.4v-5.8h-6.3v-6.9h5.7v-5.7h-5.7v-5.8H95zm14.1 8.6c.8.1 1.6.6 2 1.4.5.9.7 1.9.6 2.9l-.1 11.4h-5.9V52.7c0-.8-.2-1.4-.5-1.6-.5-.3-1.2-.4-1.8-.3v13.7h-6.1V34.4h9.2c1.2-.1 2.4.3 3.4 1 .8.7 1.4 1.7 1.6 2.8.3 1.5.5 3.1.4 4.6.1 1.4-.2 2.7-.7 4-.2 1-1.1 1.7-2.1 2zm-2.9-6c0-.6 0-1.2-.1-1.8 0-.3-.2-.6-.4-.8-.2-.2-.5-.2-.8-.2h-1.4v5.6h1.4c.9 0 1.3-1 1.3-2.8zM92.4 85.4l3.3 5.8H94l-3-5.4c-.4.1-.9.1-1.3.1h-1.8v5.3h-1.5v-13h3.5c1.2-.1 2.4.3 3.5.9.9.7 1.4 1.7 1.3 2.9 0 .7-.2 1.5-.6 2.1-.5.5-1 1-1.7 1.3zm-.2-1.4c.6-.4 1-1.2.9-2 .1-.8-.2-1.5-.8-2-.7-.4-1.5-.6-2.4-.6h-2v5.1h1.9c.8.1 1.7-.1 2.4-.5zm-22 5.1-2.9-10.9h-1.5L63 89.1l-3-11-1.5.2 3.7 12.8h1.4l2.8-10.7 3 10.7H71l3.5-12.9h-1.4l-2.9 10.9zm-13.4-8c.5 1.1.8 2.2.8 3.4 0 1.2-.3 2.4-.8 3.5-.5 1-1.3 1.8-2.2 2.4-.9.6-2 .9-3.2.9-1.1 0-2.2-.3-3.1-.9-.9-.6-1.7-1.4-2.1-2.4-.5-1.1-.8-2.2-.8-3.4 0-1.2.3-2.4.8-3.5.5-1 1.2-1.8 2.2-2.4.9-.6 2-.9 3.1-.9s2.2.3 3.1.9c1 .6 1.7 1.5 2.2 2.4zm-.8 3.5c0-1-.2-1.9-.6-2.8-.3-.8-.9-1.4-1.6-1.9-.7-.5-1.5-.7-2.3-.7-.8 0-1.7.2-2.3.7-.7.5-1.3 1.2-1.6 2-.4.9-.6 1.8-.6 2.8 0 1 .2 1.9.6 2.8.3.8.9 1.4 1.6 1.9.7.5 1.5.7 2.3.7.8 0 1.7-.2 2.3-.7.7-.5 1.3-1.2 1.6-2 .4-.9.6-1.8.6-2.8zm22 5.3v-4.8h4.6l-.2-1.1H78v-4.6h5.7l-.2-1.1h-7v12.9h7.8l-.2-1.2H78zM34.1 78.2v1.2h4.3v11.7H40V79.4h4.5l-.2-1.2H34.1z"/></svg>