<svg xmlns="http://www.w3.org/2000/svg" viewBox="0 0 177.8 30" style="enable-background:new 0 0 177.8 30" xml:space="preserve"><path d="M60 13.4v.3h-3c.1-1.7-1.2-3.2-2.9-3.2h-.3c-2.2 0-3.5 1.7-3.5 4.7V17c0 3 1.3 4.7 3.5 4.7 1.7.1 3.1-1.1 3.2-2.8v-.3h3v.3c0 3.2-2.6 5.4-6.3 5.4-4.3 0-6.7-2.8-6.7-7.4v-1.8c0-4.6 2.4-7.4 6.7-7.4 3.7 0 6.3 2.3 6.3 5.7zm15.7 1.7v2.1c0 4.5-2.6 7.2-6.9 7.2-4.3 0-6.8-2.7-6.8-7.2v-2.1c0-4.5 2.6-7.3 6.9-7.3 4.3-.1 6.8 2.7 6.8 7.3zm-3.2-.1c0-3.1-1.5-4.7-3.6-4.7s-3.6 1.6-3.6 4.7v2.1c0 3.1 1.5 4.6 3.6 4.6s3.6-1.5 3.6-4.6V15zm15.8 3.7h-.1L81.1 8h-2.6v16h3V13.3h.1l7 10.7h2.6V8h-3v10.7zm13.6-3.9-2.5-.6c-1.4-.3-2.2-1-2.2-1.9 0-1.3 1.1-2.1 2.8-2.1 1.9 0 2.9 1.1 3 2.3h3c0-2.9-2.5-4.7-5.9-4.7-3.3 0-6 1.7-6 4.8 0 2.7 1.9 3.9 4.1 4.4l2.5.6c1.7.4 2.5 1 2.5 2.1 0 1.3-1.1 2.2-3 2.2-2.1 0-3.2-1.1-3.3-2.3h-3.1c0 2.2 1.6 4.9 6.2 4.9 3.9 0 6.3-1.9 6.3-5-.1-3-2-4.2-4.4-4.7zm5.4-4.1h4.5V24h3.2V10.7h4.5V8h-12.3v2.7zm23.2 6.9 3.2 6.4h-3.5l-2.8-6h-2.8v6h-3.1V8h6.4c3.8 0 5.6 2.2 5.6 5.1 0 2-1.2 3.8-3 4.5zm-.4-4.4c.1-1.4-1-2.6-2.4-2.7H124.5v5.2h2.8c1.8 0 2.8-.9 2.8-2.5zm15.7 5c0 1.8-1.5 3.3-3.3 3.3-1.8 0-3.3-1.5-3.3-3.3V8H136v10.6c0 3.4 2.5 5.7 6.5 5.7s6.5-2.3 6.5-5.7V8h-3.2v10.2zm12.4-10.5c-4.3 0-6.7 2.8-6.7 7.4V17c0 4.6 2.4 7.4 6.7 7.4 3.6 0 6.3-2.2 6.3-5.4v-.3h-3v.3c-.1 1.7-1.6 2.9-3.2 2.8-2.2 0-3.5-1.7-3.5-4.7v-1.9c0-3 1.3-4.7 3.5-4.7h.3c1.7.1 3 1.5 2.9 3.2h3v-.3c-.1-3.4-2.7-5.7-6.3-5.7zm7.4.3v2.6h4.5V24h3.2V10.7h4.5V8h-12.2zM11 30h8V0h-8v30zM0 25h8V4.6H0V25zm22 0h8V4.6h-8V25z" style="fill:#030504"/></svg>