<svg xmlns="http://www.w3.org/2000/svg" viewBox="0 0 288.2 27.1" style="enable-background:new 0 0 288.2 27.1" xml:space="preserve"><path d="M114.1 18.2c0 .3-.1.5-.3.6-.2.1-.5.2-.8.1h-1.9v-1.5h2c.3 0 .5 0 .8.1.1.2.2.4.2.7zm-8.1-.8h-2v1.7h2.1c.6 0 1-.3 1-.9-.1-.5-.5-.8-1.1-.8zm29.5 1.1c.6.6.8 1.4.8 2.2 0 2-1.3 3.2-3.6 3.2h-3.1c-.4 0-.8-.3-1-.7-.7.5-1.5.7-2.4.7h-3.1c-.2 0-.3 0-.5-.1-.1.1-.3.1-.5.1h-5.3c-.2 0-.3 0-.5-.1-.2.1-.3.1-.5.1h-1.6c-.6 0-1.1-.5-1.1-1.1v-1.4H112.2v1.3c0 .6-.5 1.1-1.1 1.1h-1.6c-.6 0-1.1-.5-1.1-1.1V21c-.7.4-1.6.6-2.4.6h-.9v1.1c0 .6-.5 1.1-1.1 1.1h-3.1c-.3 0-.6-.1-.8-.4l-1.2-1.3-1.2 1.3c-.2.2-.5.4-.8.4h-6.3c-.6 0-1.1-.5-1.1-1.1V16c0-.6.5-1.1 1.1-1.1H97c.3 0 .6.1.8.4l1.2 1.3 1.2-1.3c.2-.2.5-.4.8-.4h5.1c.9 0 1.7.2 2.5.6.2-.4.6-.6 1-.6h3.7c.8-.1 1.7.1 2.4.4.1 0 .1.1.2.2.2-.4.6-.6 1-.6h5.3c.4 0 .8.2.9.6.6-.4 1.4-.6 2.1-.6h3.2c.5 0 .9.3 1 .7.7-.5 1.5-.8 2.3-.7h3.2c.6 0 1.1.5 1.1 1.1v1.4c0 .5-.2.8-.5 1.1 0-.1 0-.1 0 0zm-26.8-.2c0-1.9-1.4-2.2-2.7-2.2h-5.1l-2 2.2-2-2.2h-6.4v6.7h6.3l2-2.2 2 2.2h3.1v-2.2h2c1.4-.1 2.8-.5 2.8-2.3zm6.1 1.3c.7-.3 1.2-1 1.1-1.8 0-.6-.3-1.2-.8-1.5-.6-.3-1.3-.4-1.9-.3h-3.7v6.7h1.6v-2.4h1.7c.6 0 .9.1 1.2.3.3.3.3.9.3 1.3v.8h1.6v-1.3c0-.4 0-.9-.3-1.2-.3-.3-.5-.4-.8-.6zm7.3-3.5h-5.3v6.7h5.3v-1.4h-3.7V20h3.6v-1.4h-3.6v-1.2h3.7v-1.3zm6.6 4.5c0-.5-.1-1-.5-1.4-.5-.4-1.2-.6-1.8-.5h-.9c-.2 0-.4 0-.6-.1-.3-.1-.4-.4-.3-.7 0-.1.1-.2.2-.2.2-.1.4-.1.6-.1h2.9v-1.4h-3.2c-1.7 0-2.3 1-2.3 2 0 2.1 1.9 2 3.4 2.1.2 0 .4 0 .6.1.1.1.2.3.2.4 0 .2-.1.3-.2.4-.2.1-.4.2-.6.2h-3.1v1.4h3.1c1.6 0 2.5-.7 2.5-2.2zm6.5 0c0-.5-.1-1-.5-1.4-.5-.4-1.2-.6-1.8-.5h-.9c-.2 0-.4 0-.6-.1-.3-.1-.4-.4-.3-.7 0-.1.1-.2.2-.2.2-.1.4-.1.6-.1h2.9v-1.4h-3.2c-1.7 0-2.3 1-2.3 2 0 2.1 1.9 2 3.4 2.1.2 0 .4 0 .6.1.1.1.2.3.2.4 0 .2-.1.3-.2.4-.2.1-.4.2-.6.2h-3.1v1.4h3.1c1.6 0 2.5-.7 2.5-2.2zM119.7 5.7l-1.1 2.7h2.2l-1.1-2.7zM107 7.3c.2-.1.3-.4.3-.6 0-.2-.1-.5-.3-.6-.2-.1-.5-.1-.8-.1h-2v1.5h1.9c.4 0 .6-.1.9-.2zm-4.6 14.8v-5.4l-2.5 2.6 2.5 2.8zm-12.7-9.7c-.4 0-.8-.3-1-.7l-.2-.5c0 .6-.5 1.1-1.1 1.1h-3.2c-.4 0-.8-.3-1-.7l-.3-.8h-1.8l-.3.8c-.2.4-.6.7-1 .7h-1.7c-.6 0-1.1-.5-1.1-1.1 0-.1 0-.3.1-.4L80 4.1c.2-.4.6-.7 1-.7h2c.4 0 .8.3 1 .7l.6 1.4v-1c0-.6.5-1.1 1.1-1.1h2.6c.4 0 .8.3 1 .6l1 2.3.9-2.2c.2-.4.6-.7 1-.7H95c.2 0 .4.1.6.2.2-.1.4-.2.6-.2h5.3c.2 0 .4.1.6.2.2-.1.4-.2.6-.2h3.7c.9-.1 1.7.1 2.5.5.1 0 .1.1.2.2.2-.4.6-.6 1-.6h1.6c.5 0 1 .4 1.1.9.8-.7 1.9-1 3-.9h1.5c.2 0 .5.1.7.2.2-.1.4-.2.7-.2h2.4c.4 0 .8.3 1 .7l.6 1.4v-1c0-.6.5-1.1 1.1-1.1h2.4c.4 0 .7.2.9.5l.8 1.3v-.7c0-.6.5-1.1 1.1-1.1h1.6c.6 0 1.1.5 1.1 1.1v6.7c0 .6-.5 1.1-1.1 1.1h-2.3c-.4 0-.7-.2-.9-.5l-1-1.6v1.1c0 .6-.5 1.1-1.1 1.1H122c-.4 0-.8-.3-1-.7l-.3-.8h-1.8l-.3.8c-.2.4-.6.7-1 .7h-1.9c-1 0-2.1-.3-2.9-.9-.1.5-.5.9-1.1.9H110c-.2 0-.3 0-.5-.1-.2.1-.3.1-.5.1h-1.6c-.6 0-1.1-.5-1.1-1.1v-1.2H105.4v1.3c0 .6-.5 1.1-1.1 1.1h-1.6c-.2 0-.4-.1-.6-.2-.2.1-.4.2-.6.2h-5.3c-.2 0-.4-.1-.6-.2-.2.1-.4.2-.6.2h-1.6c-.6 0-1.1-.5-1.1-1.1l-.2.5c-.2.4-.6.7-1 .7l-1.4-.3zM112.4 8c-.1.9.2 1.9.9 2.5.7.5 1.5.8 2.3.7h1.9l.6-1.5h3.3l.6 1.5h3.2v-5l3 5h2.3V4.6h-1.6v4.6l-2.8-4.6h-2.4v6.3L121 4.6h-2.4l-2.3 5.2h-.7c-.4 0-.8-.1-1.1-.3-.3-.5-.5-1-.4-1.6 0-.5.1-1.1.5-1.5.3-.3.8-.5 1.2-.4h1.5V4.6h-1.5c-.9-.1-1.8.2-2.4.8-.8.7-1.1 1.6-1 2.6zm3.3-.9c-.4 0-.4 0-.5.1-.1.2-.1.5-.1.7 0 .3 0 .5.1.8h.3l.7-1.6h-.5zM110 4.6v6.7h1.6V4.6H110zm-7.4 6.7h1.6V8.8h1.7c.4-.1.8 0 1.2.3.2.4.3.9.3 1.3v.8h1.6V9.9c.1-.4 0-.9-.3-1.2-.2-.3-.5-.4-.8-.6.7-.3 1.1-1 1.1-1.8 0-.6-.3-1.2-.8-1.5-.6-.3-1.3-.4-1.9-.3h-3.7v6.8zm-6.4-6.7v6.7h5.3V9.9h-3.7V8.5h3.6V7.2h-3.6V6h3.7V4.6h-5.3zm-6.5 6.7h1.4L93.4 6v5.2H95V4.6h-2.7l-1.9 4.5-2.1-4.5h-2.6v6.3L83 4.6h-2.4l-2.9 6.7h1.7l.6-1.5h3.3l.6 1.5h3.2V6l2.6 5.3zm2.4 6.2v1.2h3.5V20h-3.5v1.3H96l1.8-2-1.7-1.9h-4zM80.7 8.4h2.2l-1.1-2.7-1.1 2.7zM182 18.5c-1.3-1.1-2.3-2.4-3-3.9-.3-.7-.6-1.5-.8-2.3-.2-.8-.3-1.7-.2-2.5.1-2.9 1.3-5.6 3.3-7.6l.5-.5.1-.1c-1.4-1-3.1-1.5-4.8-1.6-5.6-.4-10.4 3.8-10.9 9.3V10.1c0 2 .6 3.9 1.7 5.6 3.2 4.6 9.4 5.9 14.1 2.8zm1.9 7.1V25.9h-2c0 .4.4.7.8.7.3 0 .6-.1.8-.3l.3.4c-.3.3-.7.4-1.1.4-.8 0-1.4-.6-1.4-1.4 0-.8.6-1.4 1.4-1.4.6 0 1.2.6 1.2 1.3zm-.6-.1c0-.4-.3-.7-.7-.6-.4 0-.7.3-.7.6h1.4zm4.5-.7c.3 0 .5.1.7.2l.3-.5c-.3-.2-.6-.3-1-.3h-.1c-.7 0-1.3.7-1.3 1.4v.1c0 .7.7 1.3 1.4 1.3.3 0 .7-.1 1-.3l-.3-.5c-.2.2-.4.2-.7.2-.4 0-.8-.4-.8-.8-.1-.3.3-.7.8-.8zm-2-.5c-.3 0-.6.1-.7.4v-.3h-.6V27h.6v-1.5c0-.4.2-.7.6-.7.1 0 .2 0 .4.1l.2-.5c-.2-.1-.4-.1-.5-.1zm7.3.4v-.3h-.6V27h.6v-1.5c0-.4.2-.7.6-.7.1 0 .2 0 .4.1l.2-.5c-.1 0-.3-.1-.4-.1-.4 0-.6.1-.8.4zm3.5-1.4h.6V27h-.6v-.3c-.2.3-.5.4-.8.4-.8 0-1.4-.6-1.4-1.4 0-.8.6-1.4 1.4-1.4.3 0 .6.1.8.4v-1.4zm0 2.5c0-.4-.3-.8-.8-.9-.4 0-.8.3-.8.8 0 .4.3.8.8.9.4 0 .8-.4.8-.8zm-5.4-1.4h.6V27h-.6v-.3c-.2.3-.5.4-.8.4-.8 0-1.4-.6-1.4-1.4 0-.8.6-1.4 1.4-1.4.3 0 .6.1.8.4v-.3zm0 1.4c0-.4-.3-.8-.8-.9-.4 0-.8.3-.8.8 0 .4.3.8.8.9.4 0 .8-.4.8-.8zm-7.9-24.1s0 .1.1.2c1.2 1 2.2 2.3 2.9 3.8.8 1.8 1.1 3.8.9 5.7-.1.9-.3 1.8-.6 2.6-.5 1.3-1.2 2.4-2.1 3.4-.3.4-.7.7-1.1 1.1l-.1.1c3.4 2.2 7.8 2.2 11.1 0 4.7-3.1 5.9-9.3 2.9-14-3.1-4.7-9.4-6-14-2.9zm-3 24.8c-.3 0-.4-.2-.4-.4v-1.2h.9v-.5h-.9v-.8h-.6v.8h-.5v.5h.5v1.2c0 .6.2 1 .9 1 .3 0 .5-.1.7-.2l-.2-.5c-.1.1-.3.1-.4.1zm-1.6-16.4c0 3.1 1.4 6.1 3.9 8 0 0 .1 0 .1-.1 2.3-1.9 3.7-4.7 3.8-7.7 0-.6 0-1.3-.2-1.9-.2-.9-.4-1.8-.9-2.7-.6-1.3-1.6-2.5-2.7-3.5 0 0-.1-.1-.2-.1-2.3 2-3.8 4.9-3.8 8zm-3.9 14.3h.6V27h-.6v-.3c-.2.3-.5.4-.8.4-.8 0-1.4-.6-1.4-1.4 0-.8.6-1.4 1.4-1.4.3 0 .6.1.8.4v-.3zm.1 1.4c0-.4-.3-.8-.8-.9-.4 0-.8.3-.8.8 0 .4.3.8.8.9.4 0 .8-.4.8-.8zm-2.7-.6c0-.5-.5-1-1-.9-.4 0-.7.2-.9.5-.2-.3-.5-.5-.9-.5-.3 0-.6.1-.8.4v-.3h-.6V27h.6v-1.6c0-.3.3-.6.7-.6.4 0 .6.2.6.7V27h.6v-1.6c0-.3.3-.6.7-.6.4 0 .6.2.6.7V27h.6v-1.7c-.2 0-.2 0-.2-.1zm21.6-.9zm-16.4 1.1h-.3c-.3 0-.5-.1-.5-.3 0-.2.2-.3.5-.3s.6.1.8.2l.3-.5c-.3-.2-.7-.3-1.1-.3-.7 0-1.1.3-1.1.9 0 .4.3.7.9.8h.3c.3 0 .5.1.5.3 0 .2-.2.3-.6.3-.3 0-.6-.1-.9-.3l-.3.5c.3.2.7.4 1.2.3.8 0 1.2-.4 1.2-.9.1-.3-.3-.6-.9-.7zM286.6 8.2zm-1.4-1.3h.5v1.4h.3V6.9h.5v-.2h-1.3v.2zm2.7-.3-.4 1.1c-.1.2-.1.2-.1.3-.1-.1-.1-.1-.1-.2l-.4-1.1h-.3v1.5h.1V6.8l.5 1.4h.3l.5-1.4v1.4h.2V6.6h-.3zM257 9.1l-3.1 5.4-.5-5.4h-3.1l1.3 9.5-2.2 4.1h3.5l7.4-13.6H257zm-8 3.4-1.4 6.3h-3.1l.2-1.1c-1.6 1.7-5.8 1.6-5.1-2.2.5-2.3 2.8-3 6.2-3 .2-1.1-.5-1.3-1.6-1.3-1 .1-2 .3-3 .7l.3-2.2c1.1-.3 2.3-.5 3.5-.6 2.1-.1 4.5.8 4 3.4zm-3.6 2.5h-.8c-.6 0-1.5 0-1.8.6-.5.8.1 1.2.8 1.2.8-.1 1.4-.4 1.6-1.2 0-.3.1-.7.2-.6zm-5-3.9c-.4 2.3-2.4 3.9-4.7 3.8h-2.4l-.9 3.9H229l2.5-12.6h5.8c1.6 0 3.7 2.1 3.1 4.9zm-3.2-.5c.2-.6-.1-1.2-.7-1.4-.2-.1-.3-.1-.5-.1h-1.6l-.7 2.9h1.6c.9 0 1.7-.6 1.9-1.4zm42 1.9-1.4 6.3h-3.1l.2-1.1c-1.6 1.7-5.9 1.6-5.2-2.2.5-2.3 2.8-3 6.3-3 .2-1.1-.5-1.3-1.6-1.3-1 .1-2 .3-3 .7l.3-2.2c1.2-.3 2.4-.5 3.6-.6 2-.1 4.3.8 3.9 3.4zm-3.6 2.5h-.8c-.7 0-1.6 0-1.9.6-.4.8.2 1.2.9 1.2.8-.1 1.5-.4 1.6-1.2 0-.3.1-.7.2-.6zm-5.1-3.9c-.4 2.3-2.4 3.9-4.7 3.8h-2.4l-.9 3.9h-3.4l2.5-12.6h5.7c1.7 0 3.7 2.1 3.2 4.9zm-3.3-.5c.2-.6-.1-1.2-.7-1.4-.2-.1-.3-.1-.5-.1h-1.6l-.7 2.9h1.5c1 0 1.8-.6 2-1.4zm12.1 8.2h3.1L285 6.2h-3.2l-2.5 12.6zm-232.6-.5c-.2.1-.2.1-.3.1h-3.2c-.1-.7-.3-1.4-.4-2 0-.1 0-.1-.1-.1H38c-.1 0-.1 0-.1.1s-.1.3-.1.4c-.1.3-.2.6-.3.8-.1.3-.2.5-.3.8 0 .1-.1.1-.1.1h-3.9v-.1c.2-.6.5-1.2.7-1.8.2-.5.4-1 .6-1.4L35 14c0-.1.1-.2.1-.2l.5-1.2c.1-.2.2-.4.2-.6l.4-.9c0-.1 0-.1.1-.2l.5-1.3s0-.1.1-.1l.5-1.1c0-.1.1-.2.1-.3l.5-1.2c0-.1.1-.1.1-.2l.7-1.7c.1-.4.4-.7.7-.9h.1c.2-.1.5-.2.8-.2H43.8c.1 0 .1 0 .1.1.4 1.7.7 3.5 1.1 5.2l1.2 6c.1.5.2.9.3 1.4 0 .4.1 1 .2 1.7zm-4.6-5.1c-.1-.2-.1-.5-.2-.7-.3-1.3-.6-2.7-.8-4V8.2c0-.2-.1-.3-.1-.4v-.1.1c-.2.5-.3.9-.5 1.4v.2l-.6 1.8v.2c-.1.3-.3.7-.4 1v.2c-.1.2-.1.4-.2.6 0 .1 0 .1.1.1H42.1c-.1-.2 0-.2 0-.1zM16.4 6.8c.1-.2.2-.4.2-.5.2-.3.3-.6.4-.9.1-.1.1-.2.2-.4 0-.1.1-.2.1-.3l.4-1h-4l-.1.3-.3.6c0 .4-.2.7-.3 1-.1.3-.3.6-.4.9-.1.3-.2.6-.3.8l-.6 1.5c0 .1-.1.2-.1.3l-.4 1.1-.6 1.5c0 .1-.1.1-.1.2l-.5 1.4-.1.3v-.1c-.1-.3-.1-.7-.2-1-.1-.3-.1-.5-.2-.8v-.1l-.2-1.2-.6-3c-.2-.6-.3-1.4-.5-2.2-.1-.9-.8-1.5-1.7-1.5H.1c0 .2-.1.3-.1.4v.1l.6.1c.5.1 1 .3 1.5.4l.4.2c.5.2 1 .4 1.4.6.1.1.3.2.4.4.1.2.3.5.3.8.2.8.4 1.6.7 2.5l1.6 6c.3 1 .5 2 .8 3 0 0 0 .1.1.1h4c0-.1.1-.2.1-.4.1-.2.1-.3.2-.5.1-.3.3-.6.4-1l.6-1.4v-.1l.6-1.3.3-.6c.1-.3.2-.6.4-.9.1-.2.2-.4.2-.5.1-.3.3-.6.4-.9v-.1l.1-.1v-.1l.4-1.4c.1-.3.3-.6.4-.9.2-.4.4-.9.5-1.3zm6.7-3.1h-3.8v.2L19 5.4c-.1.3-.1.5-.2.8l-.3 1.5c0 .1-.1.3-.1.4 0 .2-.1.3-.1.5l-.3 1.6c0 .1-.1.3-.1.4l-.2 1.1c-.1.4-.2.9-.3 1.3l-.2 1c0 .2-.1.4-.1.6l-.3 1.4c0 .1-.1.2-.1.3l-.4 1.8v.1H20.1V18c.1-.3.1-.6.2-1 0-.2.1-.4.1-.6l.3-1.5.1-.4.1-.4v-.2l.3-1.3c.1-.5.2-1.1.3-1.6.1-.2.1-.5.2-.7.1-.7.3-1.3.4-2 .1-.3.1-.7.2-1 .2-.9.4-1.9.6-2.8.1-.2.2-.5.2-.8zm9.3 7.4c-.6-.6-1.3-1.1-2-1.4-.5-.3-1-.5-1.5-.8h-.1c-.2-.1-.4-.3-.5-.5-.2-.2-.2-.4-.2-.7 0-.1.1-.3.2-.4.2-.3.6-.5.9-.6.2-.1.5-.1.7-.1H31.4c.3 0 .6.1.9.2.3.1.7.2 1 .4h.1l.2-.8c.1-.3.1-.5.2-.8.1-.5.2-1 .2-1.4 0-.1 0-.1-.1-.1s-.1-.1-.2-.1l-1.2-.3h-.1c-.6-.1-1.2-.2-1.8-.2h-1c-.2 0-.3 0-.5.1-.4 0-.7.1-1 .2-.3.1-.7.2-1.1.4-.3.1-.6.3-.9.5-.3.2-.6.5-.9.8-.1.1-.1.2-.2.2-.2.3-.4.6-.5.9v.1c-.2.4-.3.9-.3 1.3-.1.5 0 1.1.2 1.6.2.6.6 1 1 1.4.3.3.7.6 1.1.8.3.2.6.3.9.5.1.1.3.1.4.2.2.1.3.2.5.3.2.1.5.3.7.5.2.2.3.4.4.7v.2c0 .2-.1.5-.3.7-.2.2-.4.3-.6.4-.1.1-.3.1-.4.1-.4.1-.8.1-1.1.1h-.5c-.4 0-.8-.1-1.3-.2-.2 0-.4-.1-.6-.1-.2-.1-.4-.1-.6-.2-.3-.1-.5-.2-.8-.3 0 0-.1-.1-.1 0-.1.3-.1.6-.2.9-.2.7-.3 1.5-.5 2.2v.1c.3.1.7.3 1.1.4.1 0 .3.1.4.1.1 0 .2.1.3.1.3.1.6.1.9.1H27.5c.3 0 .7-.1 1-.1.2 0 .4-.1.5-.1.4-.1.7-.2 1.1-.3.2-.1.5-.2.7-.4h.1c.3-.2.6-.4.8-.6.3-.3.6-.6.8-1 .5-.8.7-1.7.6-2.6.2-1-.1-1.8-.7-2.4z" style="fill-rule:evenodd;clip-rule:evenodd;fill:#616161"/></svg>